<svg width="20" height="21" viewBox="0 0 20 21" fill="none" xmlns="http://www.w3.org/2000/svg">
<path d="M10 10.5C11.3261 10.5 12.5979 9.97322 13.5355 9.03553C14.4732 8.09785 15 6.82608 15 5.5C15 4.17392 14.4732 2.90215 13.5355 1.96447C12.5979 1.02678 11.3261 0.5 10 0.5C8.67392 0.5 7.40215 1.02678 6.46447 1.96447C5.52678 2.90215 5 4.17392 5 5.5C5 6.82608 5.52678 8.09785 6.46447 9.03553C7.40215 9.97322 8.67392 10.5 10 10.5V10.5ZM13.3333 5.5C13.3333 6.38405 12.9821 7.2319 12.357 7.85702C11.7319 8.48214 10.8841 8.83333 10 8.83333C9.11594 8.83333 8.2681 8.48214 7.64298 7.85702C7.01786 7.2319 6.66667 6.38405 6.66667 5.5C6.66667 4.61594 7.01786 3.7681 7.64298 3.14298C8.2681 2.51786 9.11594 2.16667 10 2.16667C10.8841 2.16667 11.7319 2.51786 12.357 3.14298C12.9821 3.7681 13.3333 4.61594 13.3333 5.5V5.5ZM20 18.8333C20 20.5 18.3333 20.5 18.3333 20.5H1.66667C1.66667 20.5 0 20.5 0 18.8333C0 17.1667 1.66667 12.1667 10 12.1667C18.3333 12.1667 20 17.1667 20 18.8333ZM18.3333 18.8267C18.3317 18.4167 18.0767 17.1833 16.9467 16.0533C15.86 14.9667 13.815 13.8333 10 13.8333C6.18333 13.8333 4.14 14.9667 3.05333 16.0533C1.92333 17.1833 1.67 18.4167 1.66667 18.8267H18.3333Z" fill="#8F4EF9"/>
</svg>
