<svg width="41" height="39" viewBox="0 0 41 39" fill="none" xmlns="http://www.w3.org/2000/svg">
<path d="M35.6504 15.3658C35.9293 14.5965 36.0704 13.7885 36.0704 12.9571C36.0704 9.04511 32.8874 5.8621 28.9754 5.8621C28.579 5.8621 28.1842 5.89401 27.7979 5.95952C26.8455 3.73897 24.9827 2.00889 22.6681 1.23792C18.2186 -0.245247 13.3912 2.16846 11.9047 6.62132C11.8946 6.64819 11.8862 6.67675 11.8761 6.70362C10.6752 7.20417 9.69759 8.06417 9.04755 9.13245C6.4558 8.65374 3.7515 9.54733 1.96599 11.531C0.598725 13.0495 -0.0966654 15.0097 0.0108346 17.0488C0.116655 19.088 1.01193 20.9642 2.52869 22.3314C3.01748 22.7715 3.55162 23.1427 4.12439 23.44C3.75318 24.8023 3.9329 26.2686 4.65517 27.5183C5.37072 28.7562 6.52466 29.6431 7.90536 30.0126C8.36728 30.1369 8.83591 30.1974 9.30119 30.1974C10.2284 30.1974 11.1438 29.9539 11.9685 29.4785C12.6152 29.1039 13.1813 28.5883 13.6281 27.9701H21.6469C22.2029 27.9701 22.6547 27.5183 22.6547 26.9623C22.6547 26.4064 22.2029 25.9545 21.6469 25.9545H13.0805C12.7177 25.9545 12.3834 26.1494 12.2054 26.4635C11.903 26.9926 11.4613 27.4427 10.9607 27.7333C10.1881 28.1784 9.28943 28.296 8.42775 28.0659C7.56607 27.8358 6.84716 27.2832 6.40037 26.5105C5.83935 25.538 5.80492 24.3576 6.3063 23.351C6.45277 23.0571 6.46201 22.711 6.34779 22.4692C6.23357 22.2256 5.99556 22.0409 5.74361 21.9501C5.05494 21.7049 4.42841 21.3303 3.87915 20.8348C2.76048 19.827 2.10205 18.4463 2.0231 16.943C1.94415 15.4414 2.45646 13.9985 3.46427 12.8798C4.69044 11.5193 6.50451 10.8575 8.29001 11.0607C8.20939 11.4571 8.16404 11.867 8.16404 12.2852C8.16404 15.2247 10.2317 17.6686 13.0234 18.2196C13.1712 21.0734 15.4304 23.267 18.2875 23.267H25.8461C27.8903 23.267 29.5515 24.9282 29.5515 26.9691V27.9701H31.5671V26.9691C31.5671 23.8163 29.0006 21.2514 25.8461 21.2514H18.2875C16.4617 21.2514 15.0306 19.7884 15.0306 17.9206V17.3243C15.0306 16.7817 14.6023 16.3366 14.0614 16.3165C11.8845 16.2358 10.1797 14.4655 10.1797 12.2852C10.1797 10.5132 11.3151 8.96616 13.0049 8.43706C13.3392 8.33124 13.5945 8.06081 13.6801 7.72151C13.7171 7.5737 13.7641 7.41581 13.8179 7.25624C14.9517 3.85991 18.6352 2.01897 22.0315 3.15108C24.0287 3.81624 25.5858 5.41698 26.1938 7.43597C26.2711 7.69464 26.4491 7.90964 26.686 8.03561C26.9245 8.16159 27.2033 8.18847 27.4603 8.10616C27.9457 7.95499 28.4563 7.87772 28.9754 7.87772C31.7771 7.87772 34.0547 10.1554 34.0547 12.9571C34.0547 13.4241 33.9926 13.8809 33.87 14.321C33.1074 14.0203 32.276 13.8557 31.4008 13.8557H30.4485C29.5179 11.3799 26.8539 9.92862 24.2185 10.5753C23.0729 10.8592 22.0802 11.4941 21.3479 12.4129C21.0019 12.8479 21.0741 13.4828 21.5092 13.8289C21.9442 14.1766 22.5791 14.1043 22.9251 13.6693C23.377 13.1016 23.9917 12.7085 24.7022 12.5321C26.4626 12.1005 28.2518 13.1792 28.6781 14.9425C28.8328 15.5825 29.2371 15.8714 29.7195 15.8714H31.4008C34.1253 15.8714 36.2602 18.1608 36.2602 21.0834V27.9701H38.2758V21.0834C38.2758 18.7319 37.2579 16.6776 35.6504 15.3658Z" fill="#8F4EF9"/>
<path d="M40.7656 29.8008L28.0074 29.8112L28 34.168H30.0156V38.1992H38.75V34.168H40.7656V29.8008Z" fill="black"/>
</svg>
