<svg width="20" height="21" viewBox="0 0 20 21" fill="none" xmlns="http://www.w3.org/2000/svg">
<path d="M19.0909 7.85511H14.7364L10.7545 0.942571C10.5818 0.647524 10.2909 0.5 10 0.5C9.70909 0.5 9.41818 0.647524 9.24545 0.953109L5.26364 7.85511H0.909091C0.409091 7.85511 0 8.32929 0 8.90885C0 9.00369 0.00909088 9.09853 0.0363636 9.19336L2.34545 18.9615C2.55455 19.8467 3.25455 20.5 4.09091 20.5H15.9091C16.7455 20.5 17.4455 19.8467 17.6636 18.9615L19.9727 9.19336L20 8.90885C20 8.32929 19.5909 7.85511 19.0909 7.85511ZM10 3.4294L12.5455 7.85511H7.45455L10 3.4294ZM15.9091 18.3925L4.1 18.4031L2.1 9.96259H17.9091L15.9091 18.3925ZM10 12.0701C9 12.0701 8.18182 13.0184 8.18182 14.1776C8.18182 15.3367 9 16.285 10 16.285C11 16.285 11.8182 15.3367 11.8182 14.1776C11.8182 13.0184 11 12.0701 10 12.0701Z" fill="#8F4EF9"/>
</svg>
