<svg width="20" height="20" viewBox="0 0 20 20" fill="none" xmlns="http://www.w3.org/2000/svg">
<path d="M19.0909 7.35511H14.7364L10.7545 0.442571C10.5818 0.147524 10.2909 0 10 0C9.70909 0 9.41818 0.147524 9.24545 0.453109L5.26364 7.35511H0.909091C0.409091 7.35511 0 7.82929 0 8.40885C0 8.50369 0.00909088 8.59853 0.0363636 8.69336L2.34545 18.4615C2.55455 19.3467 3.25455 20 4.09091 20H15.9091C16.7455 20 17.4455 19.3467 17.6636 18.4615L19.9727 8.69336L20 8.40885C20 7.82929 19.5909 7.35511 19.0909 7.35511ZM10 2.9294L12.5455 7.35511H7.45455L10 2.9294ZM15.9091 17.8925L4.1 17.9031L2.1 9.46259H17.9091L15.9091 17.8925ZM10 11.5701C9 11.5701 8.18182 12.5184 8.18182 13.6776C8.18182 14.8367 9 15.785 10 15.785C11 15.785 11.8182 14.8367 11.8182 13.6776C11.8182 12.5184 11 11.5701 10 11.5701Z" fill="white"/>
</svg>
